<svg version="1.1" id="Layer_1" xmlns="http://www.w3.org/2000/svg" xmlns:xlink="http://www.w3.org/1999/xlink" x="0px" y="0px"
	 width="100%" viewBox="0 0 512 512" enable-background="new 0 0 512 512" xml:space="preserve">
<path fill="#000000" opacity="1.000000" stroke="none" 
	d="
M513.000000,276.000000 
	C513.000000,354.965546 513.000000,433.931061 513.000000,512.896606 
	C512.867859,512.931091 512.735779,512.995728 512.603638,512.995728 
	C342.178040,513.000000 171.752441,513.000000 1.000000,513.000000 
	C1.000000,431.311615 1.000000,349.622772 1.252361,267.130371 
	C3.524246,269.241943 5.159832,272.538910 7.621532,275.014374 
	C38.983635,306.552155 70.436653,337.999695 101.930038,369.406555 
	C112.555984,380.003296 128.831894,379.116791 138.561462,369.863159 
	C148.512024,360.399384 149.213898,342.331787 138.923065,332.261871 
	C114.873909,308.728912 91.251953,284.759338 67.465431,260.958160 
	C66.207031,259.699005 65.026459,258.362061 63.117901,256.321869 
	C64.823624,255.009216 66.413979,254.039917 67.695679,252.761215 
	C91.517578,228.995514 115.275558,205.165680 139.111923,181.414520 
	C146.423645,174.128937 147.851028,165.371552 145.369186,155.918839 
	C140.105377,135.870422 115.175446,131.072403 101.271004,145.130920 
	C71.634857,175.095428 41.676052,204.740631 11.974434,234.640839 
	C8.556674,238.081451 5.960543,242.332794 2.904458,246.144913 
	C2.516984,246.628220 1.646629,246.724442 1.000000,247.000000 
	C1.000000,165.035187 1.000000,83.070358 1.000000,1.105542 
	C1.131414,1.070362 1.262828,1.004343 1.394243,1.004340 
	C171.821091,0.999976 342.247955,1.000000 513.000000,1.000000 
	C513.000000,85.355064 513.000000,169.710556 512.752686,254.869446 
	C510.151520,252.762161 508.035522,249.614426 505.407440,246.976898 
	C474.005005,215.461197 442.367676,184.177582 411.161041,152.469864 
	C401.327759,142.478683 379.531006,143.199661 370.898987,158.411880 
	C364.865814,169.044113 367.192444,182.682449 375.587036,191.078156 
	C397.500854,212.994781 419.415253,234.910782 441.338226,256.818207 
	C444.216736,259.694672 447.146729,262.519623 450.104156,265.418732 
	C425.070953,290.445648 400.400391,315.023682 375.846527,339.717712 
	C369.624023,345.975708 366.881927,353.459259 367.887634,362.574890 
	C369.851807,380.377502 386.568970,389.076172 402.669922,383.761749 
	C407.387390,382.204681 411.762604,378.547241 415.399384,374.947876 
	C444.651855,345.996582 473.695465,316.834106 502.775482,287.708832 
	C504.032074,286.450287 504.963440,284.873627 506.146332,283.533447 
	C508.392609,280.988495 510.711334,278.507538 513.000000,276.000000 
M269.927948,164.440826 
	C265.949432,173.308334 262.003754,182.190750 257.984192,191.039597 
	C252.819244,202.409866 247.543823,213.730118 242.406998,225.112991 
	C232.004623,248.163956 221.676712,271.248505 211.292252,294.307587 
	C204.967407,308.352081 198.561813,322.360260 192.249924,336.410553 
	C180.627136,362.282867 169.060410,388.180389 157.439026,414.053314 
	C154.500656,420.595062 152.948456,427.192108 154.969513,434.396271 
	C158.029617,445.304169 165.880585,452.231567 177.977783,453.932800 
	C187.371841,455.253876 200.023804,447.937500 203.895248,439.299927 
	C214.895126,414.758392 225.807266,390.177551 236.791077,365.628754 
	C245.725494,345.660370 254.706512,325.712769 263.679443,305.761597 
	C275.776642,278.863647 287.883759,251.970123 299.990723,225.076553 
	C308.905884,205.273041 317.810944,185.464935 326.750946,165.672623 
	C336.830200,143.358170 346.988007,121.079079 357.011993,98.739899 
	C359.644470,92.873230 360.722870,86.919075 359.138367,80.285110 
	C356.407593,68.852180 347.582001,61.098366 335.702820,60.158737 
	C324.070221,59.238613 314.181671,65.882538 309.361328,76.297462 
	C303.712189,88.503044 298.477234,100.899574 292.959076,113.166687 
	C285.375519,130.025269 277.694763,146.840118 269.927948,164.440826 
z"/>
<path fill="#677BFF" opacity="1.000000" stroke="none" 
	d="
M513.000000,275.531464 
	C510.711334,278.507538 508.392609,280.988495 506.146332,283.533447 
	C504.963440,284.873627 504.032074,286.450287 502.775482,287.708832 
	C473.695465,316.834106 444.651855,345.996582 415.399384,374.947876 
	C411.762604,378.547241 407.387390,382.204681 402.669922,383.761749 
	C386.568970,389.076172 369.851807,380.377502 367.887634,362.574890 
	C366.881927,353.459259 369.624023,345.975708 375.846527,339.717712 
	C400.400391,315.023682 425.070953,290.445648 450.104156,265.418732 
	C447.146729,262.519623 444.216736,259.694672 441.338226,256.818207 
	C419.415253,234.910782 397.500854,212.994781 375.587036,191.078156 
	C367.192444,182.682449 364.865814,169.044113 370.898987,158.411880 
	C379.531006,143.199661 401.327759,142.478683 411.161041,152.469864 
	C442.367676,184.177582 474.005005,215.461197 505.407440,246.976898 
	C508.035522,249.614426 510.151520,252.762161 512.752686,255.336426 
	C513.000000,261.687653 513.000000,268.375275 513.000000,275.531464 
z"/>
<path fill="#677BFF" opacity="1.000000" stroke="none" 
	d="
M1.000000,247.468414 
	C1.646629,246.724442 2.516984,246.628220 2.904458,246.144913 
	C5.960543,242.332794 8.556674,238.081451 11.974434,234.640839 
	C41.676052,204.740631 71.634857,175.095428 101.271004,145.130920 
	C115.175446,131.072403 140.105377,135.870422 145.369186,155.918839 
	C147.851028,165.371552 146.423645,174.128937 139.111923,181.414520 
	C115.275558,205.165680 91.517578,228.995514 67.695679,252.761215 
	C66.413979,254.039917 64.823624,255.009216 63.117901,256.321869 
	C65.026459,258.362061 66.207031,259.699005 67.465431,260.958160 
	C91.251953,284.759338 114.873909,308.728912 138.923065,332.261871 
	C149.213898,342.331787 148.512024,360.399384 138.561462,369.863159 
	C128.831894,379.116791 112.555984,380.003296 101.930038,369.406555 
	C70.436653,337.999695 38.983635,306.552155 7.621532,275.014374 
	C5.159832,272.538910 3.524246,269.241943 1.252361,266.663391 
	C1.000000,260.645599 1.000000,254.291214 1.000000,247.468414 
z"/>
<path fill="#677BFF" opacity="1.000000" stroke="none" 
	d="
M269.991821,164.057281 
	C277.694763,146.840118 285.375519,130.025269 292.959076,113.166687 
	C298.477234,100.899574 303.712189,88.503044 309.361328,76.297462 
	C314.181671,65.882538 324.070221,59.238613 335.702820,60.158737 
	C347.582001,61.098366 356.407593,68.852180 359.138367,80.285110 
	C360.722870,86.919075 359.644470,92.873230 357.011993,98.739899 
	C346.988007,121.079079 336.830200,143.358170 326.750946,165.672623 
	C317.810944,185.464935 308.905884,205.273041 299.990723,225.076553 
	C287.883759,251.970123 275.776642,278.863647 263.679443,305.761597 
	C254.706512,325.712769 245.725494,345.660370 236.791077,365.628754 
	C225.807266,390.177551 214.895126,414.758392 203.895248,439.299927 
	C200.023804,447.937500 187.371841,455.253876 177.977783,453.932800 
	C165.880585,452.231567 158.029617,445.304169 154.969513,434.396271 
	C152.948456,427.192108 154.500656,420.595062 157.439026,414.053314 
	C169.060410,388.180389 180.627136,362.282867 192.249924,336.410553 
	C198.561813,322.360260 204.967407,308.352081 211.292252,294.307587 
	C221.676712,271.248505 232.004623,248.163956 242.406998,225.112991 
	C247.543823,213.730118 252.819244,202.409866 257.984192,191.039597 
	C262.003754,182.190750 265.949432,173.308334 269.991821,164.057281 
z"/>
</svg>